# xmcd CD database file
#
# Track frame offsets:
#	150
#	18058
#	31589
#	46854
#	62885
#	78477
#	95270
#	106134
#	120836
#	133019
#	144500
#	158969
#	173738
#	189479
#	204379
#	219949
#	239026
#	253223
#	268362
#	282077
#	294806
#
# Disc length: 4091 seconds
#
# Revision: 1
# Processed by: cddbd v1.5.1PL2 Copyright (c) Steve Scherf et al.
# Submitted via: CDex 1.51
#
DISCID=210ff915
DTITLE=Kompilacija - Pozega 2005. - vecer tamburaske pjesme
DYEAR=2005
DGENRE=Narodne
TTITLE0=Najbolji hrvatski tamburasi - Nostalgija
TTITLE1=Slavonske lole - Ti si moje najmilije
TTITLE2=Stjepan Jersek Stef - Ne daj, Slavonijo
TTITLE3=Otrov - Moje oko plavo
TTITLE4=Vera Svoboda - Pjesmo moja
TTITLE5=Ciro Gasparac - Kada suze poteku ko rijeka
TTITLE6=Sanja i Tanja Zivkovic i TS Srce Slavonije - Mi smo cure sokice
TTITLE7=Mladi 6 - Pukni srce
TTITLE8=Patria - Zivot je pjesma
TTITLE9=Estam - Ano, moja rano
TTITLE10=Zeljko Loncaric Zec - Slavonija na srcu mi pise
TTITLE11=Ana Jukic - Ispod divljeg kestena
TTITLE12=Sima Jovanovac - Oprosti
TTITLE13=Ravnica - Zenit cu te
TTITLE14=Slavonija Band - Zbogom noci
TTITLE15=Viktorija Kulisic Djenka - Bez tebe bi ljubav umrla
TTITLE16=Sirok Sor - Ovo je nasa zadnja noc
TTITLE17=TS Zvona - Crna zeno
TTITLE18=Kristali - Draga moja, cekam te
TTITLE19=Zeljko Witowsky - Oj curice, moja rano
TTITLE20=Slavonski becari - Nikad nismo bolje pili
EXTD=YEAR: 2005
EXTT0=
EXTT1=
EXTT2=
EXTT3=
EXTT4=
EXTT5=
EXTT6=
EXTT7=
EXTT8=
EXTT9=
EXTT10=
EXTT11=
EXTT12=
EXTT13=
EXTT14=
EXTT15=
EXTT16=
EXTT17=
EXTT18=
EXTT19=
EXTT20=
PLAYORDER=
